<svg width="378" height="454" xmlns="http://www.w3.org/2000/svg" xmlns:xlink="http://www.w3.org/1999/xlink" xml:space="preserve" overflow="hidden"><defs><clipPath id="clip0"><rect x="628" y="215" width="378" height="454"/></clipPath></defs><g clip-path="url(#clip0)" transform="translate(-628 -215)"><path d="M628 321.001C628 286.207 656.207 258 691.001 258L942.999 258C977.793 258 1006 286.207 1006 321.001L1006 605.999C1006 640.793 977.793 669 942.999 669L691.001 669C656.207 669 628 640.793 628 605.999Z" fill="#0F9ED5" fill-rule="evenodd"/><path d="M628 241.881C637.787 230.574 665.247 204.688 686.725 241.156 708.203 277.624 733.941 222.275 756.869 234.115 779.797 245.956 790.944 195.286 822.662 223.875 854.381 252.463 918.423 260.556 947.181 240.516 970.26 228.17 988.446 261.267 1005 241.881L1005 309 628 309 628 241.881Z" fill="#0F9ED5" fill-rule="evenodd"/></g></svg>