<svg width="1412" height="1413" xmlns="http://www.w3.org/2000/svg" xmlns:xlink="http://www.w3.org/1999/xlink" xml:space="preserve" overflow="hidden"><g transform="translate(-2596 -531)"><path d="M3239.73 1032.78 3249.94 1029.57 3260.37 1026.98 3270.63 1024.72 3280.96 1023.27 3291.36 1022.15 3301.68 1021.55 3311.88 1021.63 3322.01 1021.99 3332.25 1023.01 3342.31 1024.37 3352.27 1026.4 3361.95 1028.81 3371.65 1031.71 3381.13 1035.08 3390.49 1038.89 3399.58 1043.09 3408.49 1047.63 3417.18 1052.65 3425.71 1058.25 3433.77 1064.1 3441.71 1070.38 3449.38 1077.06 3456.54 1084.13 3463.62 1091.5 3470.24 1099.35 3476.4 1107.46 3482.38 1115.91 3487.91 1124.86 3492.93 1133.96 3497.53 1143.42 3501.76 1153.31 3505.58 1163.32 3508.84 1173.63 3511.43 1184.07 3513.69 1194.33 3515.2 1204.76 3516.22 1214.97 3516.82 1225.29 3516.86 1235.69 3516.32 1245.91 3515.44 1255.96 3514.08 1266.03 3512.01 1275.89 3509.64 1285.67 3506.81 1295.46 3503.53 1304.9 3499.67 1314.16 3495.48 1323.25 3490.85 1332.21 3485.84 1340.91 3480.34 1349.38 3474.4 1357.5 3468.21 1365.38 3461.54 1373.05 3454.57 1380.4 3447.11 1387.29 3439.31 1394 3431.26 1400.26 3422.71 1406.05 3413.92 1411.62 3404.82 1416.63 3395.18 1421.33 3385.48 1425.46 3375.42 1429.18 3365.11 1432.43 3354.88 1435.16 3344.52 1437.23 3334.14 1438.83 3323.79 1439.81 3313.47 1440.4 3303.17 1440.38 3292.96 1440.07 3282.86 1439.09 3272.83 1437.59 3262.88 1435.56 3253.11 1433.19 3243.41 1430.3 3233.98 1427.02 3224.76 1423.25 3215.48 1418.92 3206.66 1414.33 3197.97 1409.31 3189.49 1403.8 3181.28 1397.91 3173.44 1391.57 3165.77 1384.9 3158.52 1377.87 3151.53 1370.46 3144.86 1362.75 3138.65 1354.54 3132.76 1346.04 3127.29 1337.19 3122.22 1327.99 3117.53 1318.59 3113.44 1308.74 3109.57 1298.64 3106.36 1288.41 3103.67 1278.03 3101.5 1267.72 3099.91 1257.34 3098.83 1247.04 3098.32 1236.66 3098.29 1226.27 3098.7 1216.24 3099.67 1206.14 3101.12 1196.02 3103.14 1186.06 3105.5 1176.29 3108.3 1166.64 3111.67 1157.15 3115.38 1147.85 3119.67 1138.71 3124.2 1129.79 3129.31 1121.05 3134.71 1112.62 3140.56 1104.56 3146.93 1096.57 3153.51 1088.96 3160.57 1081.56 3168.03 1074.67 3175.79 1068.1 3183.94 1061.79 3192.44 1055.91 3201.19 1050.48 3210.38 1045.42 3219.78 1040.73 3229.67 1036.5 3239.73 1032.78Z" fill="#F2F2F2" fill-rule="evenodd"/><path d="M3201.49 1128.81 3207.17 1123.75 3213.06 1119.06 3219.1 1114.64 3225.39 1110.7 3231.69 1106.99 3238.2 1103.64 3244.91 1100.68 3251.59 1098.09 3258.37 1095.68 3265.22 1093.85 3272.27 1092.14 3279.19 1090.87 3286.36 1090.06 3293.44 1089.31 3300.6 1089.12 3307.67 1089.21 3314.65 1089.6 3321.89 1090.45 3328.9 1091.54 3335.74 1092.98 3342.78 1094.78 3349.5 1096.88 3356.28 1099.31 3362.89 1102.08 3369.46 1105.23 3375.81 1108.63 3382.12 1112.41 3388.11 1116.48 3394.12 1121.03 3399.76 1125.78 3405.46 1130.86 3410.8 1136.38 3415.72 1142.02 3420.46 1147.99 3424.77 1154.07 3428.9 1160.26 3432.57 1166.7 3435.86 1173.11 3438.82 1179.82 3441.55 1186.53 3443.72 1193.32 3445.7 1200.21 3447.25 1207.21 3448.57 1214.22 3449.56 1221.29 3450.17 1228.33 3450.3 1235.38 3450.3 1242.64 3449.82 1249.67 3449.1 1256.71 3448 1263.72 3446.62 1270.65 3444.81 1277.69 3442.7 1284.41 3440.27 1291.19 3437.4 1297.85 3434.34 1304.37 3430.84 1310.76 3427.15 1317.02 3423.03 1323.16 3418.61 1328.98 3413.81 1334.76 3408.72 1340.23 3403.24 1345.66 3396.41 1351.48 3387.15 1358.39 3375.56 1366.34 3361.97 1375.27 3346.62 1385.17 3329.39 1395.62 3310.59 1406.94 3290.57 1418.93 3269.2 1431.3 3246.9 1444.18 3223.71 1457.43 3199.83 1470.94 3175.52 1484.56 3150.78 1498.3 3125.87 1512.14 3100.99 1525.83 3051.88 1552.63 3004.94 1578.1 2961.34 1601.5 2922.71 1622.29 2890.15 1639.61 2865.16 1652.88 2849.28 1661.38 2843.66 1664.36 2847.05 1658.86 2856.64 1643.55 2871.54 1619.64 2891.18 1588.52 2914.61 1551.33 2941.08 1509.56 2969.84 1464.47 3000.14 1417.34 3015.46 1393.55 3031.12 1369.7 3046.55 1346.1 3061.85 1322.69 3077.12 1299.9 3091.9 1277.74 3106.37 1256.36 3120.31 1235.99 3133.6 1216.83 3146.21 1198.89 3157.99 1182.49 3168.94 1167.88 3178.81 1154.83 3187.63 1144.05 3195.2 1135.17 3201.49 1128.81Z" fill="#4A4E57" fill-rule="evenodd"/><path d="M3250.7 1181.79 3253.63 1179.21 3256.66 1176.82 3259.7 1174.66 3262.89 1172.54 3266.23 1170.71 3269.52 1169.01 3272.87 1167.41 3276.38 1166.09 3279.78 1164.81 3283.3 1163.96 3286.83 1163.11 3290.45 1162.45 3294.08 1162.02 3297.62 1161.64 3301.31 1161.54 3304.96 1161.59 3308.57 1161.78 3312.19 1162.2 3315.77 1162.77 3319.3 1163.48 3322.85 1164.43 3326.44 1165.48 3329.76 1166.67 3333.23 1168.15 3336.51 1169.72 3339.81 1171.53 3343.06 1173.49 3346.13 1175.55 3349.15 1177.75 3352 1180.29 3354.9 1182.93 3357.67 1185.75 3360.2 1188.59 3362.54 1191.53 3364.84 1194.62 3366.87 1197.85 3368.8 1201.14 3370.49 1204.44 3371.91 1207.89 3373.33 1211.34 3374.51 1214.8 3375.59 1218.31 3376.3 1221.79 3376.96 1225.41 3377.54 1229.09 3377.68 1232.64 3377.87 1236.28 3377.87 1240.02 3377.64 1243.54 3377.26 1247.25 3376.64 1250.73 3375.98 1254.36 3375.12 1257.85 3373.88 1261.31 3372.7 1264.87 3371.41 1268.24 3369.74 1271.57 3368.02 1274.82 3366.01 1277.98 3363.91 1281.19 3361.66 1284.12 3359.26 1287.01 3356.63 1289.91 3353.75 1292.58 3350.87 1295.26 3347.84 1297.65 3344.89 1299.76 3341.65 1301.78 3338.36 1303.71 3335.07 1305.41 3331.67 1306.92 3328.22 1308.33 3324.76 1309.51 3321.29 1310.46 3317.67 1311.36 3314 1311.93 3310.42 1312.45 3306.83 1312.74 3303.19 1312.93 3299.63 1312.83 3295.97 1312.55 3292.4 1312.22 3288.73 1311.7 3285.29 1310.93 3281.65 1310.04 3278.15 1308.94 3274.78 1307.65 3271.36 1306.27 3268.08 1304.7 3264.78 1302.89 3261.53 1300.93 3258.46 1298.87 3255.39 1296.58 3252.54 1294.03 3249.69 1291.49 3246.83 1288.72 3244.34 1285.73 3242 1282.79 3239.7 1279.71 3237.72 1276.57 3235.79 1273.28 3234.1 1269.98 3232.59 1266.58 3231.26 1263.08 3230.03 1259.53 3229.05 1256.2 3228.24 1252.54 3227.48 1248.96 3227.05 1245.33 3226.77 1241.74 3226.67 1238.05 3226.72 1234.4 3226.96 1230.88 3227.33 1227.17 3227.9 1223.59 3228.61 1220.06 3229.47 1216.57 3230.56 1213.06 3231.85 1209.69 3233.18 1206.18 3234.85 1202.85 3236.57 1199.6 3238.53 1196.35 3240.68 1193.23 3242.84 1190.35 3245.33 1187.41 3247.96 1184.51 3250.7 1181.79Z" fill="#F2F2F2" fill-rule="evenodd"/><path d="M3262.05 1193.93 3264.34 1191.94 3266.62 1189.96 3269.07 1188.25 3271.56 1186.64 3274.15 1185.21 3276.8 1183.88 3279.4 1182.68 3281.96 1181.64 3284.86 1180.76 3287.53 1179.9 3290.29 1179.22 3293.07 1178.78 3295.89 1178.43 3298.77 1178.17 3301.56 1177.97 3304.4 1178.09 3307.3 1178.3 3310.01 1178.62 3313 1179.02 3315.72 1179.58 3318.54 1180.31 3321.18 1181.16 3323.87 1182.09 3326.56 1183.26 3329.07 1184.53 3331.59 1185.8 3334.16 1187.4 3336.58 1188.96 3338.93 1190.81 3341.27 1192.65 3343.39 1194.74 3345.65 1196.88 3347.63 1199.16 3349.43 1201.55 3351.23 1203.94 3352.75 1206.48 3354.27 1209.02 3355.6 1211.66 3356.79 1214.26 3357.89 1216.92 3358.75 1219.58 3359.52 1222.29 3360.16 1225.2 3360.69 1227.92 3361.09 1230.84 3361.38 1233.57 3361.4 1236.46 3361.37 1239.25 3361.25 1242.09 3360.98 1244.89 3360.47 1247.7 3359.97 1250.52 3359.18 1253.24 3358.38 1255.97 3357.35 1258.71 3356.28 1261.35 3355.05 1263.96 3353.59 1266.57 3352.12 1268.95 3350.47 1271.42 3348.67 1273.86 3346.77 1276.11 3344.82 1278.27 3342.59 1280.35 3340.3 1282.33 3337.92 1284.37 3335.57 1286.02 3332.98 1287.69 3330.53 1289.16 3327.89 1290.49 3325.28 1291.68 3322.58 1292.69 3319.82 1293.61 3317.11 1294.38 3314.34 1295.06 3311.47 1295.55 3308.79 1295.94 3305.77 1296.15 3303.08 1296.31 3300.23 1296.19 3297.39 1296.06 3294.44 1295.76 3291.68 1295.35 3288.91 1294.7 3286.14 1294.05 3283.45 1293.12 3280.77 1292.19 3278.12 1291.11 3275.61 1289.84 3273.05 1288.47 3270.43 1287.02 3267.96 1285.37 3265.76 1283.56 3263.36 1281.62 3261.2 1279.68 3258.98 1277.4 3257.05 1275.21 3255.11 1272.78 3253.45 1270.43 3251.7 1267.9 3250.32 1265.4 3249.08 1262.71 3247.89 1260.1 3246.74 1257.36 3245.88 1254.7 3245.02 1252.04 3244.38 1249.13 3243.94 1246.35 3243.54 1243.44 3243.25 1240.71 3243.23 1237.82 3243.26 1235.03 3243.39 1232.18 3243.66 1229.38 3244.16 1226.57 3244.72 1223.85 3245.46 1221.03 3246.25 1218.3 3247.19 1215.62 3248.36 1212.92 3249.58 1210.32 3250.95 1207.76 3252.51 1205.33 3254.07 1202.9 3255.96 1200.41 3257.82 1198.31 3259.81 1196 3262.05 1193.93Z" fill="#FFFFFF" fill-rule="evenodd"/></g></svg>