<svg width="380" height="661" xmlns="http://www.w3.org/2000/svg" xmlns:xlink="http://www.w3.org/1999/xlink" xml:space="preserve" overflow="hidden"><g transform="translate(-1292 -27)"><path d="M103.842 136.16C97.9712 130.347 97.9243 120.876 103.737 115.005 109.15 109.538 112.64 102.166 114.206 92.8906 115.864 102.15 119.425 109.487 124.893 114.9 130.764 120.713 130.81 130.185 124.997 136.056 119.185 141.926 109.713 141.973 103.842 136.16Z" fill="#24BBE4" fill-rule="evenodd" transform="matrix(1.00261 0 0 1 1337.19 8.2276)"/><path d="M123.796 119.883C126.847 121.673 127.732 125.831 125.774 129.169" stroke="#FFFFFF" stroke-width="2.01647" stroke-linejoin="round" stroke-miterlimit="10" fill="none" fill-rule="evenodd" transform="matrix(1.00261 0 0 1 1337.19 8.2276)"/><path d="M37.1306 198.905 37.1306 77.583C37.1306 61.188 50.4216 47.8972 66.8165 47.8972L96.3377 47.8972C112.733 47.8972 126.023 61.188 126.023 77.583L126.023 95.8239 126.023 95.8239 114.513 95.8239 103.004 95.8239 103.004 95.8239 103.004 77.583C103.004 73.9014 100.019 70.9169 96.3377 70.9169L66.8165 70.9169C63.1349 70.9169 60.1503 73.9014 60.1503 77.583L60.1503 198.905Z" stroke="#FFFFFF" stroke-width="2.01647" stroke-linejoin="round" stroke-miterlimit="10" fill="#262626" fill-rule="evenodd" transform="matrix(1.00261 0 0 1 1337.19 8.2276)"/><path d="M60.0441 46.1028C60.0441 42.3674 63.0722 39.3392 66.8076 39.3392L96.0705 39.3392C99.806 39.3392 102.834 42.3674 102.834 46.1028L102.834 46.1028C102.834 49.8382 99.806 52.8664 96.0705 52.8664L66.8076 52.8664C63.0722 52.8664 60.0441 49.8382 60.0441 46.1028Z" stroke="#FFFFFF" stroke-width="2.01647" stroke-linejoin="round" stroke-miterlimit="10" fill="#262626" fill-rule="evenodd" transform="matrix(1.00261 0 0 1 1337.19 8.2276)"/><path d="M81.4391 28.0206C85.1745 28.0206 88.2027 31.0487 88.2027 34.7841L88.2027 43.8943C88.2027 47.6297 85.1745 50.6579 81.4391 50.6579L81.4391 50.6579C77.7036 50.6579 74.6755 47.6297 74.6755 43.8943L74.6755 34.7841C74.6755 31.0487 77.7036 28.0206 81.4391 28.0206Z" stroke="#FFFFFF" stroke-width="2.01647" stroke-linejoin="round" stroke-miterlimit="10" fill="#262626" fill-rule="evenodd" transform="matrix(1.00261 0 0 1 1337.19 8.2276)"/><path d="M53.9706 25.9501C53.9706 22.2147 56.9988 19.1866 60.7343 19.1866L102.144 19.1866C105.879 19.1866 108.908 22.2147 108.908 25.9501L108.908 25.9501C108.908 29.6855 105.879 32.7137 102.144 32.7137L60.7343 32.7137C56.9988 32.7137 53.9706 29.6855 53.9706 25.95Z" stroke="#FFFFFF" stroke-width="2.01647" stroke-linejoin="round" stroke-miterlimit="10" fill="#262626" fill-rule="evenodd" transform="matrix(1.00261 0 0 1 1337.19 8.2276)"/><path d="M42 204.001C42 169.206 70.2065 141 105.001 141L356.999 141C391.793 141 420 169.206 420 204.001L420 606.999C420 641.793 391.793 670 356.999 670L105.001 670C70.2065 670 42 641.793 42 606.999Z" stroke="#FFFFFF" stroke-width="2" stroke-miterlimit="8" fill="#262626" fill-rule="evenodd" transform="matrix(1 0 0 1.00303 1251 14.9636)"/></g></svg>