<svg width="2447" height="2449" xmlns="http://www.w3.org/2000/svg" xmlns:xlink="http://www.w3.org/1999/xlink" xml:space="preserve" overflow="hidden"><defs><filter id="fx0" x="-10%" y="-10%" width="120%" height="120%" filterUnits="userSpaceOnUse" primitiveUnits="userSpaceOnUse"><feComponentTransfer color-interpolation-filters="sRGB"><feFuncR type="discrete" tableValues="0 0"/><feFuncG type="discrete" tableValues="0 0"/><feFuncB type="discrete" tableValues="0 0"/><feFuncA type="linear" slope="0.4" intercept="0"/></feComponentTransfer><feGaussianBlur stdDeviation="7.47219 7.46609"/></filter></defs><g transform="translate(141 -11)"><g filter="url(#fx0)" transform="matrix(8.99632 0 0 9.00368 -141 11)"><g><path d="M163.698 246.061 158.042 247.336 152.275 248.278 146.619 248.999 140.963 249.442 135.307 249.498 129.706 249.331 124.216 248.888 118.671 248.167 113.292 247.169 107.914 246.005 102.646 244.453 97.4886 242.735 92.387 240.739 87.3963 238.467 82.572 236.083 77.7477 233.367 73.2006 230.484 68.7645 227.325 64.4392 224.054 60.2803 220.451 56.2878 216.682 52.4616 212.801 48.8572 208.644 45.4192 204.32 42.1475 199.83 39.1531 195.118 36.3251 190.296 33.7743 185.252 31.5007 180.041 29.3936 174.719 27.5637 169.287 25.9556 163.633 24.6802 157.923 23.7375 152.214 23.0166 146.504 22.6284 140.85 22.5175 135.252 22.6839 129.708 23.1829 124.11 23.9038 118.677 24.8465 113.245 26.0665 107.813 27.5637 102.547 29.3381 97.336 31.3344 92.3471 33.5525 87.3028 35.9369 82.4247 38.6541 77.713 41.5376 73.1121 44.6983 68.6775 47.97 64.4092 51.5744 60.2518 55.3451 56.2607 59.2267 52.4359 63.3856 48.8328 67.7109 45.396 72.1471 42.1255 76.8605 39.0767 81.7402 36.3051 86.7864 33.7552 91.888 31.4271 97.2113 29.3761 102.757 27.4914 108.302 25.9947 114.069 24.6643 119.725 23.6665 125.381 22.9459 131.037 22.6688 136.749 22.5025 142.294 22.6688 147.894 23.1122 153.329 23.8328 158.763 24.7752 164.197 25.9947 169.465 27.4914 174.622 29.2652 179.668 31.2608 184.659 33.478 189.539 35.9171 194.252 38.6332 198.855 41.4603 203.346 44.6199 207.672 47.9459 211.831 51.549 215.823 55.3184 219.538 59.1986 223.198 63.356 226.636 67.6797 229.852 72.1143 232.847 76.8261 235.675 81.7041 238.226 86.6376 240.555 91.8482 242.606 97.2251 244.436 102.713 246.044 108.312 247.32 114.021 248.263 119.731 248.983 125.385 249.372 131.039 249.482 136.693 249.316 142.292 248.928 147.89 248.207 153.323 247.154 158.81 245.934 164.187 244.436 169.453 242.662 174.609 240.666 179.764 238.558 184.697 236.063 189.575 233.346 194.287 230.462 198.888 227.357 203.378 224.03 207.702 220.481 211.804 216.766 215.795 212.773 219.675 208.614 223.223 204.289 226.659 199.853 229.875 195.14 232.923 190.371 235.695 185.325 238.245 180.112 240.573 174.789 242.624 169.299 244.453 163.698 246.061Z" fill="#F2F2F2" fill-rule="evenodd"/></g></g><path d="M1339.39 2257.1 1286.93 2268.93 1233.44 2277.68 1180.99 2284.37 1128.53 2288.49 1076.07 2289 1024.13 2287.46 973.213 2283.34 921.783 2276.65 871.897 2267.39 822.011 2256.58 773.153 2242.18 725.324 2226.23 678.009 2207.7 631.722 2186.61 586.979 2164.48 542.235 2139.27 500.063 2112.52 458.92 2083.19 418.805 2052.83 380.233 2019.39 343.204 1984.4 307.718 1948.38 274.289 1909.79 242.403 1869.66 212.059 1827.98 184.288 1784.25 158.059 1739.48 134.401 1692.66 113.315 1644.29 93.7721 1594.9 76.8005 1544.48 61.886 1491.99 50.0574 1439 41.3145 1386 34.6284 1333 31.0283 1280.52 29.9998 1228.55 31.5427 1177.1 36.1714 1125.13 42.8572 1074.71 51.6001 1024.29 62.9146 973.861 76.8005 924.981 93.2578 876.615 111.772 830.308 132.344 783.485 154.459 738.207 179.659 694.472 206.402 651.766 235.717 610.603 266.06 570.984 299.489 532.395 334.461 495.349 370.462 459.846 409.034 426.402 449.148 394.501 490.292 364.143 534.007 335.844 579.265 310.118 626.065 286.449 673.38 264.839 722.752 245.802 774.181 228.308 825.611 214.415 879.097 202.066 931.555 192.805 984.013 186.116 1036.47 183.543 1089.44 182 1140.87 183.543 1192.82 187.66 1243.22 194.349 1293.62 203.096 1344.02 214.415 1392.88 228.308 1440.7 244.772 1487.51 263.296 1533.79 283.877 1579.05 306.516 1622.76 331.728 1665.45 357.969 1707.11 387.297 1747.22 418.169 1785.8 451.614 1822.82 486.602 1857.28 522.619 1891.23 561.208 1923.11 601.342 1952.94 642.504 1980.71 686.239 2006.94 731.518 2030.6 777.311 2052.2 825.677 2071.23 875.586 2088.2 926.525 2103.11 978.492 2114.94 1031.49 2123.69 1084.49 2130.37 1136.97 2133.97 1189.45 2135 1241.93 2133.46 1293.9 2129.86 1345.87 2123.17 1396.29 2113.4 1447.23 2102.09 1497.14 2088.2 1546.02 2071.74 1593.87 2053.23 1641.72 2033.68 1687.51 2010.54 1732.79 1985.34 1776.53 1958.6 1819.23 1929.8 1860.91 1898.94 1901.04 1866.02 1939.12 1831.57 1976.17 1794.54 2012.18 1755.97 2045.11 1715.85 2077.01 1674.71 2106.86 1630.99 2135.16 1586.76 2160.88 1539.96 2184.55 1491.62 2206.16 1442.25 2225.2 1391.33 2242.18 1339.39 2257.1Z" fill="#F2F2F2" fill-rule="evenodd"/><path d="M1324.01 2195.02 1274.69 2206.14 1224.41 2214.36 1175.09 2220.65 1125.77 2224.52 1076.46 2225 1027.62 2223.55 979.755 2219.68 931.404 2213.4 884.504 2204.69 837.603 2194.54 791.67 2181 746.704 2166.01 702.221 2148.6 658.705 2128.78 616.64 2107.99 574.575 2084.3 534.927 2059.15 496.246 2031.59 458.533 2003.07 422.27 1971.64 387.457 1938.76 354.095 1904.91 322.667 1868.65 292.689 1830.93 264.162 1791.77 238.053 1750.67 213.394 1708.6 191.153 1664.6 171.329 1619.15 152.955 1572.74 137 1525.35 122.978 1476.03 111.857 1426.23 103.637 1376.43 97.3519 1326.63 93.9673 1277.31 93.0002 1228.47 94.4509 1180.12 98.8024 1131.29 105.088 1083.9 113.308 1036.52 123.945 989.132 137 943.198 152.472 897.747 169.878 854.231 189.219 810.231 210.009 767.681 233.701 726.582 258.844 686.451 286.404 647.769 314.931 610.538 346.359 574.275 379.237 539.461 413.083 506.099 449.346 474.67 487.06 444.692 525.74 416.165 566.839 389.571 609.387 365.396 653.387 343.154 697.869 322.846 744.286 304.956 792.637 288.516 840.988 275.461 891.273 263.857 940.591 255.154 989.908 248.868 1039.23 246.45 1089.03 245 1137.38 246.45 1186.21 250.319 1233.6 256.604 1280.98 264.824 1328.36 275.461 1374.3 288.516 1419.26 303.989 1463.26 321.396 1506.78 340.736 1549.33 362.011 1590.43 385.703 1630.56 410.363 1669.72 437.923 1707.43 466.934 1743.7 498.363 1778.51 531.242 1810.91 565.088 1842.82 601.352 1872.79 639.066 1900.84 677.747 1926.95 718.846 1951.61 761.396 1973.85 804.429 1994.16 849.879 2012.05 896.78 2028 944.648 2042.02 993.483 2053.14 1043.29 2061.36 1093.09 2067.65 1142.41 2071.03 1191.73 2072 1241.04 2070.55 1289.88 2067.17 1338.71 2060.88 1386.1 2051.69 1433.97 2041.06 1480.87 2028 1526.8 2012.53 1571.77 1995.12 1616.74 1976.75 1659.77 1954.99 1702.32 1931.3 1743.42 1906.16 1783.55 1879.08 1822.71 1850.07 1860.43 1819.13 1896.21 1786.73 1931.02 1751.92 1964.87 1715.65 1995.81 1677.94 2025.79 1639.26 2053.84 1598.16 2080.43 1556.58 2104.6 1512.58 2126.85 1467.13 2147.15 1420.71 2165.04 1372.85 2181 1324.01 2195.02Z" fill="#FFFFFF" fill-rule="evenodd"/><path d="M179 1246 179.346 1268.41 180.383 1290.82 182.111 1312.88 184.531 1334.94 186.951 1356.66 190.408 1378.03 193.865 1399.41 198.013 1420.78 202.853 1442.15 208.038 1462.84 213.915 1483.52 219.792 1503.86 226.706 1524.2 233.62 1544.19 241.225 1564.19 249.176 1583.84 257.818 1603.14 266.461 1622.1 276.14 1641.06 286.165 1659.68 295.845 1677.95 306.907 1695.87 317.969 1713.8 329.377 1731.73 341.131 1748.96 353.23 1765.85 366.021 1782.4 379.157 1798.6 392.639 1815.15 406.121 1830.32 420.295 1845.83 434.814 1861 729 1567.63 714.481 1551.78 700.307 1534.88 687.171 1517.3 674.726 1499.38 668.849 1490.07 662.972 1481.11 657.441 1471.8 652.256 1461.8 647.07 1452.49 641.885 1442.5 637.391 1432.15 632.897 1422.16 629.094 1411.82 624.946 1401.82 621.143 1390.79 617.686 1380.45 614.575 1370.1 611.464 1359.07 608.698 1348.39 606.279 1337.35 604.204 1325.98 602.13 1314.95 600.056 1303.57 598.673 1292.19 597.636 1280.82 596.599 1269.44 596.253 1258.07 595.562 1246 179 1246Z" fill="#00C6FF" fill-rule="evenodd"/><path d="M434.814 610 420.295 625.177 406.121 640.354 392.639 656.22 379.157 672.087 366.021 688.643 353.23 705.544 341.131 722.445 329.377 739.692 317.969 756.938 306.907 774.874 295.845 793.155 286.165 811.781 276.14 830.062 266.461 848.688 257.818 868.348 249.176 887.664 241.225 906.98 233.62 926.641 226.706 946.991 219.792 967.342 213.915 987.692 208.038 1008.73 202.853 1029.43 198.013 1050.47 193.865 1071.85 190.408 1092.89 186.951 1114.97 184.531 1136.7 182.111 1158.43 180.383 1180.5 179.346 1202.58 179 1225 595.562 1225 596.253 1213.62 596.599 1201.89 597.636 1190.16 598.673 1178.78 600.056 1167.4 602.13 1156.71 604.204 1145.32 606.279 1134.29 608.698 1123.25 611.464 1112.55 614.575 1101.52 617.686 1090.48 621.143 1080.13 624.946 1069.78 629.094 1059.44 632.897 1048.74 637.391 1039.09 641.885 1029.08 647.07 1019.08 652.256 1009.08 657.441 999.765 662.972 990.452 668.849 980.794 674.726 971.481 687.171 953.545 700.307 936.299 714.481 919.742 729 903.531 434.814 610Z" fill="#00C6FF" fill-rule="evenodd"/><path d="M1065 340 1042.56 340.345 1020.11 341.381 998.359 343.453 976.605 345.525 954.507 347.941 932.753 351.394 911.345 354.847 889.937 359.336 869.22 363.824 848.157 369.349 827.439 374.874 807.067 380.743 786.695 387.649 766.323 394.555 746.296 402.151 726.96 410.092 707.623 418.379 688.287 427.357 669.296 437.024 650.305 446.692 632.004 456.706 614.049 467.755 596.094 478.458 578.83 490.198 561.22 501.938 544.3 514.023 527.381 526.798 511.152 539.574 495.269 553.04 479.386 566.506 463.847 581.008 449 595.509 742.843 889 759.072 874.498 775.646 860.687 792.91 847.221 810.865 834.791 820.534 828.921 829.856 823.051 839.179 817.526 848.847 812.347 858.516 807.168 868.529 802.679 878.543 797.5 888.556 793.011 898.915 789.213 909.273 785.07 919.978 781.272 930.336 777.819 941.386 774.711 952.09 771.604 963.139 768.841 974.188 766.424 984.892 764.353 996.287 762.281 1007.34 760.209 1018.73 758.828 1030.13 757.792 1041.52 756.757 1053.61 756.411 1065 755.721 1065 340Z" fill="#0072FF" fill-rule="evenodd"/><path d="M1701 595.509 1685.5 581.008 1670.01 566.506 1654.86 553.04 1638.33 539.574 1622.14 526.798 1605.62 514.023 1588.74 501.938 1571.53 490.198 1553.62 478.458 1535.71 467.755 1517.81 456.706 1499.56 446.692 1480.62 437.024 1462.02 427.357 1443.09 418.379 1423.8 410.092 1403.83 402.151 1384.2 394.555 1364.23 387.649 1343.91 380.743 1323.6 374.874 1302.59 369.349 1281.93 363.824 1260.58 359.336 1239.23 354.847 1217.88 351.394 1196.53 347.941 1174.84 345.525 1153.15 343.453 1130.76 341.381 1108.38 340.345 1086 340 1086 755.721 1098.05 756.411 1109.42 756.757 1120.78 757.792 1132.14 758.828 1143.51 760.209 1154.87 762.281 1165.89 764.353 1177.25 766.424 1188.27 768.841 1198.94 771.604 1209.96 774.711 1220.29 777.819 1230.97 781.272 1241.64 785.07 1251.63 789.213 1261.96 793.011 1271.95 797.5 1282.28 802.679 1292.26 807.168 1301.9 812.347 1311.55 817.526 1321.19 823.051 1330.14 828.921 1339.44 834.791 1357.34 847.221 1374.56 860.687 1391.43 874.498 1407.27 889 1701 595.509Z" fill="#0072FF" fill-rule="evenodd"/><path d="M1971 1225 1970.66 1202.58 1969.62 1180.5 1968.24 1158.43 1966.17 1136.7 1963.06 1114.97 1960.3 1092.89 1956.16 1071.85 1952.02 1050.47 1947.19 1029.43 1942.36 1008.73 1936.84 987.692 1930.28 967.342 1923.73 946.991 1916.48 926.641 1908.89 906.98 1900.95 887.664 1892.67 868.348 1883.7 848.688 1874.04 830.062 1864.72 811.781 1854.37 793.155 1844.02 774.874 1832.28 756.938 1820.9 739.692 1809.51 722.445 1797.09 705.544 1784.66 688.643 1771.9 672.087 1758.44 656.22 1744.64 640.354 1730.49 625.177 1716 610 1422 903.531 1436.84 919.742 1450.99 936.299 1464.1 953.545 1476.52 971.481 1482.73 980.794 1488.25 990.452 1493.43 999.765 1498.95 1009.08 1504.13 1019.08 1508.96 1029.08 1513.44 1039.09 1517.93 1048.74 1522.41 1059.44 1526.21 1069.78 1529.66 1080.13 1533.46 1090.48 1536.91 1101.52 1539.67 1112.55 1542.08 1123.25 1544.84 1134.29 1547.26 1145.32 1549.33 1156.71 1550.71 1167.4 1552.09 1178.78 1553.82 1190.16 1554.16 1201.89 1555.2 1213.62 1555.54 1225 1971 1225Z" fill="#1B38C7" fill-rule="evenodd"/><path d="M1716 1861 1730.49 1845.83 1744.64 1830.32 1758.44 1815.15 1771.9 1798.6 1784.66 1782.4 1797.09 1765.85 1809.51 1748.96 1820.9 1731.73 1832.28 1713.8 1844.02 1695.87 1854.37 1677.95 1864.72 1659.68 1874.04 1641.06 1883.7 1622.1 1892.67 1603.14 1900.95 1583.84 1908.89 1564.19 1916.48 1544.19 1923.73 1524.2 1930.28 1503.86 1936.84 1483.52 1942.36 1462.84 1947.19 1442.15 1952.02 1420.78 1956.16 1399.41 1960.3 1378.03 1963.06 1356.66 1966.17 1334.94 1968.24 1312.88 1969.62 1290.82 1970.66 1268.41 1971 1246 1555.54 1246 1555.2 1258.07 1554.16 1269.44 1553.82 1280.82 1552.09 1292.19 1550.71 1303.57 1549.33 1314.95 1547.26 1325.98 1544.84 1337.35 1542.08 1348.39 1539.67 1359.07 1536.91 1370.1 1533.46 1380.45 1529.66 1390.79 1526.21 1401.82 1522.41 1411.82 1517.93 1422.16 1513.44 1432.15 1508.96 1442.5 1504.13 1452.49 1498.95 1461.8 1493.43 1471.8 1488.25 1481.11 1482.73 1490.07 1476.52 1499.38 1464.1 1517.3 1450.99 1534.88 1436.84 1551.78 1422 1567.63 1716 1861Z" fill="#1B38C7" fill-rule="evenodd"/><path d="M1249.32 1920.61 1214.13 1928.54 1178.25 1934.41 1143.06 1938.89 1107.88 1941.65 1072.69 1942 1037.84 1940.96 1003.69 1938.2 969.194 1933.72 935.731 1927.51 902.268 1920.26 869.495 1910.6 837.412 1899.9 805.674 1887.48 774.626 1873.33 744.612 1858.5 714.599 1841.59 686.311 1823.65 658.713 1803.98 631.804 1783.62 605.931 1761.19 581.092 1737.73 557.289 1713.57 534.865 1687.69 513.476 1660.78 493.123 1632.83 474.494 1603.5 456.9 1573.48 441.031 1542.08 426.886 1509.65 413.777 1476.52 402.393 1442.71 392.389 1407.51 384.454 1371.97 378.589 1336.43 374.105 1300.89 371.69 1265.69 371 1230.84 372.035 1196.34 375.14 1161.49 379.624 1127.67 385.489 1093.85 393.078 1060.04 402.393 1027.26 413.432 994.824 425.852 963.769 439.651 932.369 454.485 902.004 471.389 872.675 489.328 844.035 508.992 816.431 529.345 789.862 551.769 763.982 575.228 739.138 599.376 715.33 625.25 692.901 652.158 671.508 679.756 651.149 709.08 632.172 739.438 614.919 770.831 599.046 802.569 584.554 835.687 571.787 870.185 560.055 904.683 550.739 940.561 542.457 975.749 536.246 1010.94 531.76 1046.12 530.035 1081.66 529 1116.16 530.035 1151 532.796 1184.81 537.281 1218.61 543.147 1252.42 550.739 1285.19 560.055 1317.28 571.097 1348.67 583.519 1379.72 597.321 1410.08 612.503 1439.4 629.411 1468.03 647.009 1495.98 666.677 1522.89 687.38 1548.76 709.809 1573.6 733.273 1596.71 757.426 1619.48 783.306 1640.87 810.22 1660.88 837.824 1679.51 867.154 1697.1 897.519 1712.97 928.229 1727.46 960.664 1740.22 994.134 1751.61 1028.29 1761.61 1063.15 1769.55 1098.69 1775.41 1134.23 1779.9 1169.42 1782.31 1204.62 1783 1239.81 1781.97 1274.66 1779.55 1309.51 1775.07 1343.33 1768.51 1377.49 1760.92 1410.96 1751.61 1443.74 1740.57 1475.83 1728.15 1507.92 1715.04 1538.63 1699.52 1569 1682.61 1598.33 1664.67 1626.96 1645.35 1654.91 1624.65 1681.83 1602.58 1707.36 1579.46 1732.21 1554.62 1756.36 1528.75 1778.44 1501.84 1799.84 1474.24 1819.85 1444.92 1838.83 1415.25 1856.08 1383.86 1871.95 1351.43 1886.45 1318.31 1899.21 1284.16 1910.6 1249.32 1920.61Z" fill="#FFFFFF" fill-rule="evenodd" fill-opacity="0.301961"/><text fill="#3F3F3F" font-family="Bebas Neue,Bebas Neue_MSFontService,sans-serif" font-weight="700" font-size="122" transform="matrix(1 0 0 1 643.994 1849)">MIN</text><text fill="#3F3F3F" font-family="Bebas Neue,Bebas Neue_MSFontService,sans-serif" font-weight="700" font-size="122" transform="matrix(1 0 0 1 1350.7 1849)">MAX</text><text font-family="Calibri,Calibri_MSFontService,sans-serif" font-weight="700" font-size="110" transform="matrix(1 0 0 1 396.605 1938)">0</text><text font-family="Calibri,Calibri_MSFontService,sans-serif" font-weight="700" font-size="110" transform="matrix(1 0 0 1 63.0742 1311)">10</text><text font-family="Calibri,Calibri_MSFontService,sans-serif" font-weight="700" font-size="110" transform="matrix(1 0 0 1 267.989 617)">20</text><text font-family="Calibri,Calibri_MSFontService,sans-serif" font-weight="700" font-size="110" transform="matrix(1 0 0 1 965.221 316)">30</text><text font-family="Calibri,Calibri_MSFontService,sans-serif" font-weight="700" font-size="110" transform="matrix(1 0 0 1 1701.31 612)">40</text><text font-family="Calibri,Calibri_MSFontService,sans-serif" font-weight="700" font-size="110" transform="matrix(1 0 0 1 1968.23 1234)">50</text><text font-family="Calibri,Calibri_MSFontService,sans-serif" font-weight="700" font-size="110" transform="matrix(1 0 0 1 1750.96 1888)">60</text></g></svg>