<svg width="2447" height="2449" xmlns="http://www.w3.org/2000/svg" xmlns:xlink="http://www.w3.org/1999/xlink" xml:space="preserve" overflow="hidden"><defs><filter id="fx0" x="-10%" y="-10%" width="120%" height="120%" filterUnits="userSpaceOnUse" primitiveUnits="userSpaceOnUse"><feComponentTransfer color-interpolation-filters="sRGB"><feFuncR type="discrete" tableValues="0 0"/><feFuncG type="discrete" tableValues="0 0"/><feFuncB type="discrete" tableValues="0 0"/><feFuncA type="linear" slope="0.4" intercept="0"/></feComponentTransfer><feGaussianBlur stdDeviation="7.47219 7.46609"/></filter><clipPath id="clip1"><rect x="2086" y="13" width="2447" height="2449"/></clipPath><clipPath id="clip2"><rect x="0" y="0" width="272" height="272"/></clipPath></defs><g clip-path="url(#clip1)" transform="translate(-2086 -13)"><g filter="url(#fx0)" transform="matrix(8.99632 0 0 9.00368 2086 13)"><g clip-path="url(#clip2)"><path d="M163.698 246.061 158.042 247.336 152.275 248.278 146.619 248.999 140.963 249.442 135.307 249.498 129.706 249.331 124.216 248.888 118.671 248.167 113.292 247.169 107.914 246.005 102.646 244.453 97.4886 242.735 92.387 240.739 87.3963 238.466 82.572 236.083 77.7477 233.367 73.2006 230.484 68.7645 227.325 64.4392 224.054 60.2803 220.451 56.2878 216.682 52.4616 212.801 48.8572 208.644 45.4192 204.32 42.1475 199.83 39.1531 195.118 36.3251 190.296 33.7743 185.252 31.5008 180.041 29.3936 174.719 27.5637 169.287 25.9556 163.633 24.6802 157.923 23.7375 152.214 23.0166 146.504 22.6284 140.85 22.5175 135.252 22.6839 129.708 23.183 124.11 23.9038 118.677 24.8465 113.245 26.0665 107.813 27.5637 102.547 29.3381 97.336 31.3344 92.3471 33.5525 87.3027 35.9369 82.4247 38.6541 77.713 41.5376 73.1121 44.6983 68.6775 47.97 64.4092 51.5744 60.2518 55.3451 56.2607 59.2267 52.4359 63.3857 48.8328 67.7109 45.396 72.147 42.1255 76.8605 39.0767 81.7402 36.3051 86.7864 33.7552 91.888 31.427 97.2113 29.376 102.757 27.4913 108.302 25.9947 114.069 24.6643 119.725 23.6665 125.381 22.9459 131.037 22.6687 136.749 22.5024 142.294 22.6687 147.894 23.1122 153.329 23.8328 158.763 24.7752 164.197 25.9947 169.465 27.4913 174.622 29.2652 179.668 31.2607 184.659 33.478 189.539 35.9171 194.252 38.6332 198.855 41.4603 203.346 44.6199 207.672 47.9458 211.831 51.5489 215.823 55.3183 219.538 59.1986 223.198 63.356 226.636 67.6797 229.852 72.1143 232.847 76.826 235.675 81.7041 238.226 86.6376 240.555 91.8482 242.606 97.2251 244.436 102.713 246.044 108.312 247.32 114.021 248.263 119.731 248.983 125.385 249.372 131.039 249.482 136.693 249.316 142.292 248.928 147.89 248.207 153.323 247.153 158.81 245.934 164.187 244.436 169.453 242.662 174.609 240.666 179.764 238.558 184.697 236.063 189.575 233.346 194.287 230.462 198.888 227.357 203.378 224.03 207.702 220.481 211.804 216.766 215.795 212.773 219.675 208.614 223.223 204.289 226.659 199.853 229.874 195.14 232.923 190.371 235.695 185.325 238.245 180.112 240.573 174.789 242.624 169.299 244.453 163.698 246.061Z" fill="#F2F2F2" fill-rule="evenodd"/></g></g><path d="M3566.39 2259.1 3513.93 2270.93 3460.45 2279.68 3407.99 2286.37 3355.53 2290.49 3303.07 2291 3251.13 2289.46 3200.21 2285.34 3148.78 2278.65 3098.9 2269.39 3049.01 2258.58 3000.15 2244.18 2952.32 2228.23 2905.01 2209.7 2858.72 2188.61 2813.98 2166.48 2769.24 2141.27 2727.06 2114.52 2685.92 2085.19 2645.81 2054.83 2607.23 2021.39 2570.2 1986.4 2534.72 1950.38 2501.29 1911.79 2469.4 1871.66 2439.06 1829.98 2411.29 1786.25 2385.06 1741.48 2361.4 1694.66 2340.32 1646.29 2320.77 1596.9 2303.8 1546.48 2288.89 1493.99 2277.06 1441 2268.31 1388 2261.63 1335 2258.03 1282.52 2257 1230.55 2258.54 1179.1 2263.17 1127.13 2269.86 1076.71 2278.6 1026.29 2289.91 975.861 2303.8 926.981 2320.26 878.615 2338.77 832.307 2359.34 785.485 2381.46 740.207 2406.66 696.472 2433.4 653.766 2462.72 612.603 2493.06 572.984 2526.49 534.395 2561.46 497.348 2597.46 461.846 2636.03 428.401 2676.15 396.501 2717.29 366.143 2761.01 337.844 2806.26 312.118 2853.07 288.449 2900.38 266.839 2949.75 247.801 3001.18 230.307 3052.61 216.415 3106.1 204.066 3158.56 194.805 3211.01 188.116 3263.47 185.543 3316.44 184 3367.87 185.543 3419.82 189.66 3470.22 196.348 3520.62 205.095 3571.02 216.415 3619.88 230.307 3667.71 246.772 3714.51 265.295 3760.79 285.877 3806.05 308.516 3849.76 333.728 3892.45 359.969 3934.11 389.297 3974.22 420.169 4012.8 453.613 4049.82 488.601 4084.28 524.619 4118.23 563.208 4150.11 603.342 4179.94 644.504 4207.71 688.239 4233.94 733.518 4257.6 779.311 4279.2 827.677 4298.23 877.586 4315.2 928.525 4330.11 980.492 4341.94 1033.49 4350.69 1086.49 4357.37 1138.97 4360.97 1191.45 4362 1243.93 4360.46 1295.9 4356.86 1347.87 4350.17 1398.29 4340.4 1449.23 4329.09 1499.14 4315.2 1548.02 4298.74 1595.87 4280.23 1643.72 4260.68 1689.51 4237.54 1734.79 4212.34 1778.53 4185.6 1821.23 4156.8 1862.91 4125.94 1903.04 4093.02 1941.12 4058.57 1978.17 4021.54 2014.18 3982.97 2047.11 3942.85 2079.01 3901.71 2108.86 3857.99 2137.16 3813.76 2162.88 3766.96 2186.55 3718.62 2208.16 3669.25 2227.2 3618.33 2244.18 3566.39 2259.1Z" fill="#F2F2F2" fill-rule="evenodd"/><path d="M3551.01 2198.01 3501.69 2209.13 3451.41 2217.36 3402.09 2223.65 3352.77 2227.52 3303.46 2228 3254.62 2226.55 3206.75 2222.68 3158.4 2216.39 3111.5 2207.68 3064.6 2197.52 3018.67 2183.98 2973.7 2168.98 2929.22 2151.57 2885.71 2131.73 2843.64 2110.93 2801.57 2087.23 2761.93 2062.07 2723.25 2034.5 2685.53 2005.95 2649.27 1974.51 2614.46 1941.61 2581.09 1907.75 2549.67 1871.47 2519.69 1833.73 2491.16 1794.55 2465.05 1753.43 2440.39 1711.34 2418.15 1667.32 2398.33 1621.85 2379.96 1575.41 2364 1528 2349.98 1478.65 2338.86 1428.83 2330.64 1379 2324.35 1329.17 2320.97 1279.83 2320 1230.97 2321.45 1182.59 2325.8 1133.73 2332.09 1086.32 2340.31 1038.92 2350.94 991.508 2364 945.55 2379.47 900.077 2396.88 856.538 2416.22 812.516 2437.01 769.945 2460.7 728.826 2485.84 688.673 2513.4 649.973 2541.93 612.723 2573.36 576.441 2606.24 541.61 2640.08 508.231 2676.35 476.786 2714.06 446.793 2752.74 418.251 2793.84 391.644 2836.39 367.456 2880.39 345.203 2924.87 324.885 2971.29 306.986 3019.64 290.538 3067.99 277.477 3118.27 265.867 3167.59 257.159 3216.91 250.87 3266.23 248.451 3316.03 247 3364.38 248.451 3413.21 252.321 3460.6 258.61 3507.98 266.834 3555.36 277.477 3601.3 290.538 3646.26 306.019 3690.26 323.434 3733.78 342.785 3776.33 364.07 3817.43 387.774 3857.56 412.446 3896.72 440.02 3934.43 469.046 3970.7 500.491 4005.51 533.386 4037.91 567.25 4069.82 603.532 4099.79 641.265 4127.84 679.966 4153.95 721.085 4178.61 763.656 4200.85 806.711 4221.16 852.185 4239.04 899.109 4255 947.002 4269.02 995.861 4280.14 1045.69 4288.36 1095.52 4294.65 1144.86 4298.03 1194.2 4299 1243.55 4297.55 1292.41 4294.17 1341.27 4287.88 1388.68 4278.69 1436.57 4268.06 1483.49 4255 1529.45 4239.53 1574.44 4222.12 1619.43 4203.75 1662.48 4181.99 1705.05 4158.3 1746.17 4133.16 1786.33 4106.08 1825.51 4077.07 1863.24 4046.12 1899.04 4013.73 1933.87 3978.92 1967.74 3942.65 1998.7 3904.94 2028.69 3866.26 2056.75 3825.16 2083.36 3783.58 2107.54 3739.58 2129.8 3694.13 2150.11 3647.71 2168.01 3599.85 2183.98 3551.01 2198.01Z" fill="#FFFFFF" fill-rule="evenodd"/><path d="M2406 1248 2406.35 1270.41 2407.38 1292.82 2409.11 1314.88 2411.53 1336.94 2413.95 1358.66 2417.41 1380.03 2420.86 1401.41 2425.01 1422.78 2429.85 1444.15 2435.04 1464.84 2440.92 1485.52 2446.79 1505.86 2453.71 1526.2 2460.62 1546.19 2468.23 1566.19 2476.18 1585.84 2484.82 1605.14 2493.46 1624.1 2503.14 1643.06 2513.17 1661.68 2522.84 1679.95 2533.91 1697.87 2544.97 1715.8 2556.38 1733.73 2568.13 1750.96 2580.23 1767.85 2593.02 1784.4 2606.16 1800.6 2619.64 1817.15 2633.12 1832.32 2647.29 1847.83 2661.81 1863 2956 1569.63 2941.48 1553.78 2927.31 1536.88 2914.17 1519.3 2901.73 1501.38 2895.85 1492.07 2889.97 1483.11 2884.44 1473.8 2879.26 1463.8 2874.07 1454.49 2868.89 1444.5 2864.39 1434.15 2859.9 1424.16 2856.09 1413.82 2851.95 1403.82 2848.14 1392.79 2844.69 1382.45 2841.58 1372.1 2838.46 1361.07 2835.7 1350.39 2833.28 1339.35 2831.2 1327.98 2829.13 1316.95 2827.06 1305.57 2825.67 1294.19 2824.64 1282.82 2823.6 1271.44 2823.25 1260.07 2822.56 1248 2406 1248Z" fill="#00C6FF" fill-rule="evenodd"/><path d="M2661.81 612 2647.29 627.177 2633.12 642.353 2619.64 658.22 2606.16 674.086 2593.02 690.643 2580.23 707.544 2568.13 724.445 2556.38 741.691 2544.97 758.938 2533.91 776.874 2522.84 795.155 2513.17 813.781 2503.14 832.062 2493.46 850.688 2484.82 870.348 2476.18 889.664 2468.23 908.98 2460.62 928.64 2453.71 948.991 2446.79 969.341 2440.92 989.692 2435.04 1010.73 2429.85 1031.43 2425.01 1052.47 2420.86 1073.85 2417.41 1094.89 2413.95 1116.97 2411.53 1138.7 2409.11 1160.43 2407.38 1182.5 2406.35 1204.58 2406 1227 2822.56 1227 2823.25 1215.62 2823.6 1203.89 2824.64 1192.16 2825.67 1180.78 2827.06 1169.4 2829.13 1158.7 2831.2 1147.32 2833.28 1136.28 2835.7 1125.25 2838.46 1114.55 2841.58 1103.52 2844.69 1092.48 2848.14 1082.13 2851.95 1071.78 2856.09 1061.44 2859.9 1050.74 2864.39 1041.09 2868.89 1031.08 2874.07 1021.08 2879.26 1011.08 2884.44 1001.76 2889.97 992.451 2895.85 982.793 2901.73 973.48 2914.17 955.544 2927.31 938.298 2941.48 921.742 2956 905.53 2661.81 612Z" fill="#00C6FF" fill-rule="evenodd"/><path d="M3292 342 3269.56 342.345 3247.11 343.381 3225.36 345.453 3203.61 347.525 3181.51 349.942 3159.75 353.394 3138.35 356.847 3116.94 361.336 3096.22 365.825 3075.16 371.349 3054.44 376.874 3034.07 382.743 3013.7 389.649 2993.32 396.555 2973.3 404.151 2953.96 412.092 2934.62 420.379 2915.29 429.357 2896.3 439.025 2877.3 448.692 2859 458.706 2841.05 469.755 2823.09 480.458 2805.83 492.198 2788.22 503.938 2771.3 516.023 2754.38 528.798 2738.15 541.574 2722.27 555.04 2706.39 568.506 2690.85 583.008 2676 597.509 2969.84 891 2986.07 876.498 3002.65 862.687 3019.91 849.221 3037.87 836.791 3047.53 830.921 3056.86 825.051 3066.18 819.526 3075.85 814.347 3085.52 809.168 3095.53 804.679 3105.54 799.5 3115.56 795.011 3125.91 791.213 3136.27 787.07 3146.98 783.272 3157.34 779.819 3168.39 776.711 3179.09 773.604 3190.14 770.841 3201.19 768.425 3211.89 766.353 3223.29 764.281 3234.34 762.209 3245.73 760.828 3257.13 759.792 3268.52 758.757 3280.61 758.411 3292 757.721 3292 342Z" fill="#0072FF" fill-rule="evenodd"/><path d="M3928 597.509 3912.48 583.008 3896.96 568.506 3881.78 555.04 3865.23 541.574 3849.02 528.798 3832.46 516.023 3815.56 503.938 3798.32 492.198 3780.38 480.458 3762.45 469.755 3744.51 458.706 3726.23 448.692 3707.26 439.025 3688.64 429.357 3669.67 420.379 3650.35 412.092 3630.35 404.151 3610.69 396.555 3590.68 389.649 3570.33 382.743 3549.98 376.874 3528.95 371.349 3508.25 365.825 3486.87 361.336 3465.48 356.847 3444.1 353.394 3422.71 349.942 3400.99 347.525 3379.26 345.453 3356.84 343.381 3334.42 342.345 3312 342 3312 757.721 3324.07 758.411 3335.45 758.757 3346.84 759.792 3358.22 760.828 3369.6 762.209 3380.98 764.281 3392.02 766.353 3403.4 768.425 3414.44 770.841 3425.13 773.604 3436.17 776.711 3446.51 779.819 3457.2 783.272 3467.9 787.07 3477.9 791.213 3488.25 795.011 3498.25 799.5 3508.6 804.679 3518.6 809.168 3528.26 814.347 3537.91 819.526 3547.57 825.051 3556.54 830.921 3565.85 836.791 3583.78 849.221 3601.03 862.687 3617.93 876.498 3633.8 891 3928 597.509Z" fill="#0072FF" fill-rule="evenodd"/><path d="M4198 1227 4197.65 1204.58 4196.62 1182.5 4195.23 1160.43 4193.16 1138.7 4190.05 1116.97 4187.28 1094.89 4183.13 1073.85 4178.99 1052.47 4174.15 1031.43 4169.31 1010.73 4163.78 989.692 4157.21 969.341 4150.64 948.991 4143.38 928.64 4135.77 908.98 4127.82 889.664 4119.53 870.348 4110.54 850.688 4100.86 832.062 4091.53 813.781 4081.16 795.155 4070.78 776.874 4059.03 758.938 4047.62 741.691 4036.21 724.445 4023.77 707.544 4011.32 690.643 3998.53 674.086 3985.05 658.22 3971.22 642.353 3957.05 627.177 3942.53 612 3648 905.53 3662.86 921.742 3677.04 938.298 3690.17 955.544 3702.62 973.48 3708.84 982.793 3714.37 992.451 3719.56 1001.76 3725.09 1011.08 3730.28 1021.08 3735.11 1031.08 3739.61 1041.09 3744.1 1050.74 3748.6 1061.44 3752.4 1071.78 3755.86 1082.13 3759.66 1092.48 3763.12 1103.52 3765.88 1114.55 3768.3 1125.25 3771.07 1136.28 3773.49 1147.32 3775.56 1158.7 3776.94 1169.4 3778.33 1180.78 3780.06 1192.16 3780.4 1203.89 3781.44 1215.62 3781.78 1227 4198 1227Z" fill="#1B38C7" fill-rule="evenodd"/><path d="M3942.53 1863 3957.05 1847.83 3971.22 1832.32 3985.05 1817.15 3998.53 1800.6 4011.32 1784.4 4023.77 1767.85 4036.21 1750.96 4047.62 1733.73 4059.03 1715.8 4070.78 1697.87 4081.16 1679.95 4091.53 1661.68 4100.86 1643.06 4110.54 1624.1 4119.53 1605.14 4127.82 1585.84 4135.77 1566.19 4143.38 1546.19 4150.64 1526.2 4157.21 1505.86 4163.78 1485.52 4169.31 1464.84 4174.15 1444.15 4178.99 1422.78 4183.13 1401.41 4187.28 1380.03 4190.05 1358.66 4193.16 1336.94 4195.23 1314.88 4196.62 1292.82 4197.65 1270.41 4198 1248 3781.78 1248 3781.44 1260.07 3780.4 1271.44 3780.06 1282.82 3778.33 1294.19 3776.94 1305.57 3775.56 1316.95 3773.49 1327.98 3771.07 1339.35 3768.3 1350.39 3765.88 1361.07 3763.12 1372.1 3759.66 1382.45 3755.86 1392.79 3752.4 1403.82 3748.6 1413.82 3744.1 1424.16 3739.61 1434.15 3735.11 1444.5 3730.28 1454.49 3725.09 1463.8 3719.56 1473.8 3714.37 1483.11 3708.84 1492.07 3702.62 1501.38 3690.17 1519.3 3677.04 1536.88 3662.86 1553.78 3648 1569.63 3942.53 1863Z" fill="#1B38C7" fill-rule="evenodd"/><path d="M3476.32 1922.61 3441.13 1930.54 3405.25 1936.41 3370.06 1940.89 3334.88 1943.65 3299.69 1944 3264.84 1942.96 3230.69 1940.2 3196.19 1935.72 3162.73 1929.51 3129.27 1922.26 3096.5 1912.6 3064.41 1901.9 3032.67 1889.48 3001.63 1875.33 2971.61 1860.5 2941.6 1843.59 2913.31 1825.65 2885.71 1805.98 2858.8 1785.62 2832.93 1763.19 2808.09 1739.73 2784.29 1715.57 2761.87 1689.69 2740.48 1662.78 2720.12 1634.83 2701.49 1605.5 2683.9 1575.48 2668.03 1544.08 2653.89 1511.65 2640.78 1478.52 2629.39 1444.71 2619.39 1409.51 2611.45 1373.97 2605.59 1338.43 2601.1 1302.89 2598.69 1267.69 2598 1232.84 2599.04 1198.34 2602.14 1163.49 2606.62 1129.67 2612.49 1095.85 2620.08 1062.04 2629.39 1029.26 2640.43 996.824 2652.85 965.769 2666.65 934.369 2681.49 904.004 2698.39 874.675 2716.33 846.035 2735.99 818.431 2756.35 791.861 2778.77 765.982 2802.23 741.138 2826.38 717.33 2852.25 694.901 2879.16 673.508 2906.76 653.149 2936.08 634.171 2966.44 616.919 2997.83 601.046 3029.57 586.554 3062.69 573.787 3097.19 562.055 3131.68 552.738 3167.56 544.457 3202.75 538.246 3237.94 533.76 3273.12 532.035 3308.66 531 3343.16 532.035 3378 534.796 3411.81 539.281 3445.61 545.147 3479.42 552.738 3512.2 562.055 3544.28 573.097 3575.67 585.519 3606.72 599.321 3637.08 614.503 3666.4 631.411 3695.03 649.009 3722.98 668.677 3749.89 689.38 3775.76 711.809 3800.6 735.272 3823.71 759.426 3846.48 785.305 3867.87 812.22 3887.88 839.824 3906.51 869.154 3924.1 899.519 3939.97 930.228 3954.46 962.664 3967.22 996.134 3978.61 1030.29 3988.61 1065.14 3996.55 1100.69 4002.41 1136.23 4006.9 1171.42 4009.31 1206.62 4010 1241.81 4008.97 1276.66 4006.55 1311.51 4002.07 1345.33 3995.51 1379.49 3987.92 1412.96 3978.61 1445.74 3967.57 1477.83 3955.15 1509.92 3942.04 1540.63 3926.52 1571 3909.61 1600.33 3891.67 1628.96 3872.35 1656.91 3851.65 1683.83 3829.58 1709.36 3806.46 1734.21 3781.62 1758.36 3755.75 1780.44 3728.84 1801.84 3701.24 1821.85 3671.92 1840.83 3642.25 1858.08 3610.86 1873.95 3578.43 1888.45 3545.31 1901.21 3511.16 1912.6 3476.32 1922.61Z" fill="#FFFFFF" fill-rule="evenodd" fill-opacity="0.301961"/><text fill="#3F3F3F" font-family="Bebas Neue,Bebas Neue_MSFontService,sans-serif" font-weight="700" font-size="122" transform="matrix(1 0 0 1 2870.85 1851)">MIN</text><text fill="#3F3F3F" font-family="Bebas Neue,Bebas Neue_MSFontService,sans-serif" font-weight="700" font-size="122" transform="matrix(1 0 0 1 3577.56 1851)">MAX</text><text font-family="Calibri,Calibri_MSFontService,sans-serif" font-weight="700" font-size="110" transform="matrix(1 0 0 1 2623.46 1941)">0</text><text font-family="Calibri,Calibri_MSFontService,sans-serif" font-weight="700" font-size="110" transform="matrix(1 0 0 1 2289.93 1313)">50</text><text font-family="Calibri,Calibri_MSFontService,sans-serif" font-weight="700" font-size="110" transform="matrix(1 0 0 1 2494.85 619)">100</text><text font-family="Calibri,Calibri_MSFontService,sans-serif" font-weight="700" font-size="110" transform="matrix(1 0 0 1 3192.08 318)">150</text><text font-family="Calibri,Calibri_MSFontService,sans-serif" font-weight="700" font-size="110" transform="matrix(1 0 0 1 3928.17 614)">200</text><text font-family="Calibri,Calibri_MSFontService,sans-serif" font-weight="700" font-size="110" transform="matrix(1 0 0 1 4195.08 1236)">250</text><text font-family="Calibri,Calibri_MSFontService,sans-serif" font-weight="700" font-size="110" transform="matrix(1 0 0 1 3977.82 1890)">300</text></g></svg>