<svg width="1413" height="1414" xmlns="http://www.w3.org/2000/svg" xmlns:xlink="http://www.w3.org/1999/xlink" xml:space="preserve" overflow="hidden"><g transform="translate(-369 -528)"><path d="M1012.87 1030.47 1023.08 1027.27 1033.51 1024.68 1043.77 1022.42 1054.1 1020.97 1064.5 1019.85 1074.82 1019.25 1085.02 1019.32 1095.15 1019.68 1105.39 1020.71 1115.46 1022.06 1125.41 1024.09 1135.09 1026.51 1144.79 1029.4 1154.27 1032.78 1163.63 1036.59 1172.72 1040.79 1181.63 1045.33 1190.32 1050.35 1198.85 1055.94 1206.91 1061.8 1214.85 1068.08 1222.52 1074.76 1229.68 1081.83 1236.76 1089.19 1243.38 1097.05 1249.54 1105.16 1255.53 1113.61 1261.05 1122.55 1266.07 1131.66 1270.67 1141.11 1274.9 1151.01 1278.72 1161.02 1281.98 1171.33 1284.58 1181.77 1286.83 1192.03 1288.34 1202.46 1289.36 1212.67 1289.97 1222.99 1290 1233.39 1289.46 1243.61 1288.58 1253.66 1287.22 1263.73 1285.15 1273.59 1282.78 1283.37 1279.95 1293.16 1276.67 1302.59 1272.81 1311.86 1268.62 1320.95 1264 1329.91 1258.98 1338.61 1253.48 1347.08 1247.54 1355.19 1241.35 1363.08 1234.68 1370.75 1227.72 1378.1 1220.26 1384.99 1212.46 1391.7 1204.4 1397.95 1195.85 1403.75 1187.06 1409.32 1177.96 1414.33 1168.32 1419.03 1158.62 1423.16 1148.56 1426.88 1138.25 1430.13 1128.02 1432.86 1117.66 1434.93 1107.28 1436.53 1096.93 1437.5 1086.61 1438.1 1076.31 1438.08 1066.1 1437.77 1056 1436.79 1045.97 1435.29 1036.02 1433.26 1026.25 1430.89 1016.55 1428 1007.12 1424.71 997.903 1420.95 988.619 1416.61 979.8 1412.03 971.107 1407.01 962.631 1401.5 954.424 1395.61 946.579 1389.27 938.911 1382.59 931.656 1375.57 924.67 1368.16 918.004 1360.45 911.794 1352.24 905.903 1343.74 900.426 1334.89 895.362 1325.69 890.669 1316.29 886.576 1306.43 882.71 1296.33 879.503 1286.11 876.812 1275.73 874.646 1265.42 873.046 1255.04 871.971 1244.73 871.463 1234.36 871.429 1223.97 871.836 1213.93 872.81 1203.83 874.258 1193.71 876.282 1183.76 878.645 1173.98 881.44 1164.33 884.811 1154.85 888.521 1145.54 892.807 1136.4 897.34 1127.49 902.449 1118.75 907.855 1110.32 913.703 1102.26 920.076 1094.27 926.653 1086.65 933.713 1079.26 941.174 1072.36 948.931 1065.79 957.08 1059.49 965.576 1053.6 974.329 1048.18 983.523 1043.12 992.921 1038.43 1002.81 1034.19 1012.87 1030.47Z" fill="#F2F2F2" fill-rule="evenodd"/><path d="M974.635 1126.51 980.315 1121.44 986.2 1116.75 992.238 1112.34 998.531 1108.39 1004.83 1104.68 1011.34 1101.34 1018.05 1098.37 1024.73 1095.78 1031.51 1093.38 1038.36 1091.54 1045.41 1089.84 1052.33 1088.57 1059.5 1087.76 1066.58 1087.01 1073.74 1086.81 1080.81 1086.91 1087.79 1087.3 1095.03 1088.15 1102.05 1089.24 1108.88 1090.67 1115.92 1092.48 1122.64 1094.58 1129.43 1097.01 1136.03 1099.78 1142.6 1102.93 1148.95 1106.33 1155.26 1110.1 1161.25 1114.18 1167.26 1118.73 1172.9 1123.48 1178.6 1128.56 1183.94 1134.08 1188.86 1139.71 1193.6 1145.69 1197.91 1151.77 1202.05 1157.96 1205.71 1164.4 1209 1170.81 1211.97 1177.52 1214.7 1184.23 1216.86 1191.02 1218.84 1197.91 1220.39 1204.91 1221.71 1211.92 1222.7 1218.99 1223.31 1226.02 1223.45 1233.08 1223.45 1240.33 1222.96 1247.37 1222.25 1254.41 1221.15 1261.42 1219.76 1268.35 1217.95 1275.39 1215.84 1282.11 1213.41 1288.89 1210.54 1295.54 1207.48 1302.06 1203.98 1308.46 1200.29 1314.72 1196.17 1320.86 1191.75 1326.68 1186.96 1332.46 1181.86 1337.92 1176.38 1343.36 1169.55 1349.17 1160.29 1356.08 1148.7 1364.04 1135.11 1372.97 1119.76 1382.87 1102.53 1393.32 1083.73 1404.64 1063.71 1416.62 1042.34 1428.99 1020.04 1441.87 996.855 1455.12 972.967 1468.64 948.658 1482.26 923.925 1496 899.007 1509.84 874.131 1523.53 825.019 1550.33 778.084 1575.8 734.481 1599.2 695.849 1619.99 663.292 1637.31 638.304 1650.58 622.422 1659.08 616.802 1662.05 620.19 1656.56 629.782 1641.25 644.678 1617.34 664.317 1586.22 687.747 1549.02 714.222 1507.25 742.984 1462.17 773.278 1415.03 788.605 1391.25 804.263 1367.4 819.693 1343.79 834.988 1320.38 850.26 1297.59 865.036 1275.44 879.51 1254.05 893.455 1233.69 906.737 1214.53 919.355 1196.58 931.133 1180.19 942.08 1165.58 951.951 1152.53 960.773 1141.75 968.342 1132.87 974.635 1126.51Z" fill="#4A4E57" fill-rule="evenodd"/><path d="M1023.84 1179.49 1026.77 1176.91 1029.8 1174.52 1032.84 1172.36 1036.03 1170.24 1039.37 1168.4 1042.67 1166.71 1046.01 1165.11 1049.52 1163.78 1052.93 1162.51 1056.45 1161.66 1059.97 1160.81 1063.59 1160.15 1067.22 1159.72 1070.76 1159.34 1074.45 1159.24 1078.1 1159.29 1081.71 1159.48 1085.33 1159.9 1088.91 1160.47 1092.44 1161.18 1095.99 1162.13 1099.58 1163.17 1102.9 1164.37 1106.37 1165.84 1109.66 1167.42 1112.95 1169.23 1116.2 1171.19 1119.27 1173.25 1122.29 1175.45 1125.14 1177.99 1128.04 1180.62 1130.81 1183.45 1133.34 1186.29 1135.68 1189.23 1137.99 1192.31 1140.01 1195.55 1141.94 1198.84 1143.63 1202.14 1145.05 1205.59 1146.47 1209.04 1147.65 1212.5 1148.73 1216.01 1149.44 1219.49 1150.11 1223.11 1150.68 1226.79 1150.82 1230.33 1151.01 1233.98 1151.02 1237.72 1150.78 1241.24 1150.4 1244.95 1149.78 1248.43 1149.12 1252.06 1148.26 1255.55 1147.03 1259.01 1145.84 1262.57 1144.55 1265.93 1142.88 1269.27 1141.16 1272.51 1139.16 1275.67 1137.06 1278.88 1134.8 1281.82 1132.4 1284.71 1129.77 1287.61 1126.89 1290.28 1124.01 1292.95 1120.98 1295.35 1118.03 1297.46 1114.79 1299.48 1111.5 1301.41 1108.21 1303.11 1104.81 1304.62 1101.36 1306.03 1097.9 1307.21 1094.43 1308.15 1090.81 1309.06 1087.14 1309.63 1083.56 1310.15 1079.97 1310.43 1076.33 1310.62 1072.77 1310.53 1069.11 1310.25 1065.54 1309.91 1061.87 1309.4 1058.43 1308.63 1054.79 1307.73 1051.29 1306.64 1047.92 1305.35 1044.5 1303.97 1041.22 1302.4 1037.92 1300.58 1034.67 1298.63 1031.6 1296.57 1028.53 1294.27 1025.68 1291.73 1022.83 1289.19 1019.97 1286.41 1017.48 1283.43 1015.14 1280.49 1012.84 1277.41 1010.86 1274.26 1008.93 1270.98 1007.24 1267.68 1005.73 1264.28 1004.41 1260.78 1003.17 1257.22 1002.19 1253.9 1001.38 1250.23 1000.62 1246.66 1000.2 1243.03 999.911 1239.44 999.812 1235.75 999.857 1232.1 1000.1 1228.58 1000.47 1224.87 1001.04 1221.29 1001.75 1217.76 1002.61 1214.26 1003.7 1210.76 1004.99 1207.39 1006.32 1203.88 1007.99 1200.54 1009.71 1197.3 1011.67 1194.05 1013.82 1190.93 1015.98 1188.05 1018.47 1185.11 1021.1 1182.21 1023.84 1179.49Z" fill="#F2F2F2" fill-rule="evenodd"/><path d="M1035.19 1191.62 1037.48 1189.64 1039.76 1187.66 1042.21 1185.95 1044.7 1184.34 1047.29 1182.91 1049.94 1181.57 1052.54 1180.38 1055.1 1179.33 1058 1178.46 1060.67 1177.6 1063.43 1176.92 1066.21 1176.48 1069.03 1176.13 1071.91 1175.87 1074.7 1175.66 1077.54 1175.79 1080.44 1176 1083.15 1176.32 1086.14 1176.72 1088.86 1177.27 1091.68 1178.01 1094.32 1178.85 1097.01 1179.79 1099.7 1180.96 1102.22 1182.23 1104.73 1183.5 1107.3 1185.1 1109.73 1186.66 1112.07 1188.5 1114.41 1190.35 1116.53 1192.44 1118.79 1194.57 1120.77 1196.86 1122.57 1199.25 1124.37 1201.64 1125.89 1204.18 1127.41 1206.72 1128.74 1209.36 1129.93 1211.96 1131.03 1214.61 1131.89 1217.28 1132.66 1219.99 1133.3 1222.9 1133.83 1225.62 1134.23 1228.54 1134.53 1231.27 1134.54 1234.15 1134.51 1236.95 1134.39 1239.79 1134.12 1242.59 1133.61 1245.4 1133.11 1248.21 1132.32 1250.94 1131.52 1253.67 1130.5 1256.41 1129.42 1259.05 1128.19 1261.65 1126.73 1264.27 1125.27 1266.64 1123.61 1269.12 1121.81 1271.56 1119.91 1273.81 1117.96 1275.97 1115.73 1278.05 1113.44 1280.03 1111.06 1282.07 1108.71 1283.72 1106.12 1285.39 1103.67 1286.85 1101.03 1288.19 1098.42 1289.38 1095.72 1290.39 1092.96 1291.3 1090.25 1292.07 1087.48 1292.75 1084.61 1293.25 1081.93 1293.64 1078.91 1293.85 1076.22 1294.01 1073.37 1293.88 1070.53 1293.76 1067.58 1293.45 1064.82 1293.04 1062.05 1292.4 1059.28 1291.75 1056.59 1290.82 1053.91 1289.89 1051.26 1288.81 1048.75 1287.54 1046.19 1286.17 1043.58 1284.72 1041.1 1283.06 1038.9 1281.26 1036.5 1279.32 1034.34 1277.37 1032.12 1275.1 1030.19 1272.9 1028.25 1270.47 1026.6 1268.13 1024.84 1265.6 1023.46 1263.1 1022.22 1260.4 1021.03 1257.8 1019.88 1255.06 1019.02 1252.39 1018.16 1249.73 1017.52 1246.83 1017.08 1244.05 1016.69 1241.14 1016.39 1238.4 1016.37 1235.52 1016.4 1232.73 1016.53 1229.88 1016.8 1227.08 1017.3 1224.27 1017.86 1221.55 1018.6 1218.73 1019.39 1216 1020.33 1213.32 1021.5 1210.62 1022.72 1208.02 1024.09 1205.46 1025.65 1203.03 1027.21 1200.6 1029.1 1198.11 1030.96 1196 1032.95 1193.7 1035.19 1191.62Z" fill="#FFFFFF" fill-rule="evenodd"/></g></svg>